# xmcd
#
# Track frame offsets:
#	150
#	16728
#	37123
#	52076
#	68989
#	85071
#	104724
#	119283
#	132865
#	149530
#	165176
#	180237
#	198864
#	218928
#	234912
#	248063
#
# Disc length: 3497 seconds
#
# Revision: 0
# Processed by: cddbd v1.5.2PL0 Copyright (c) Steve Scherf et al.
# Submitted via: EasyCDDAExtractor 16.0.4.1
#
DISCID=d90da710
DTITLE=POŽEGA 2011 - ZLATNE ŽICE SLAVONIJE
DYEAR=2011
DGENRE=Country
TTITLE0=[ SLAVONIJA BAND ] - JOŠ JEDAN DAN BEZ NJE 
TTITLE1=[ MAGNETIC and SHORTY FEAT.ZDENKA VUCKOVIC ] - ZITO
TTITLE2=[ PRVA LIGA ] - NEMOJ RECI DA JE KRAJ 
TTITLE3=[ BOSUTSKI BECARI I KLAPA CAMBI ] - SADA  KADA DOSLA SI 
TTITLE4=[ LONCARIC ZELJKO - ZEC ] - TAMBURICE MOJA KRALJICE
TTITLE5=[ MARIC TANJA ] - NE MOGU PROTIV JESENI 
TTITLE6=[ BEKRIJE I FRANO PEHAR ] - ZA SAKU LJUBAVI 
TTITLE7=[ DZENTLMENI ] - VRATI MI SE
TTITLE8=[ PATRIA I PERO GALIC ] - BILA MI JE JEDAN DAN 
TTITLE9=[ SLAVONSKI DUKATI ] - HEJ LJUBAVI
TTITLE10=[ IVANJEK GORDANA ] - TI IMAS ONO NESTO 
TTITLE11=[ BABYLON ] - U OCI ME POGLEDAJ
TTITLE12=[ PROCHAZKA DALIBOR ] - SVE JE JACA LJUBAV
TTITLE13=[ ROBERT ] - U OCI STO ME NE GLEDAS 
TTITLE14=[ GARAVUSE ] - AKO ME VOLIS 
TTITLE15=[ SESVECAN ZELJKO ] - ZELJO MOJA, ZLATO MOJE
EXTD=
EXTT0=
EXTT1=
EXTT2=
EXTT3=
EXTT4=
EXTT5=
EXTT6=
EXTT7=
EXTT8=
EXTT9=
EXTT10=
EXTT11=
EXTT12=
EXTT13=
EXTT14=
EXTT15=
PLAYORDER=
